<?xml version="1.0" encoding="UTF-8"?>
<svg width="440px" height="122px" viewBox="0 0 440 122" version="1.1" xmlns="http://www.w3.org/2000/svg" xmlns:xlink="http://www.w3.org/1999/xlink">
    <!-- Generator: Sketch 53 (72520) - https://sketchapp.com -->
    <title>Group 25</title>
    <desc>Created with Sketch.</desc>
    <defs>
        <polygon id="path-1" points="0 122 440.003 122 440.003 0.609 0 0.609"></polygon>
        <polygon id="path-3" points="70 0.307 70 20.308 85.859 20.308 20 86.167 20 20.308 50 20.308 50 0.307 0 0.307 0 120.308 120 120.308 120 70.307 100 70.307 100 100.307 34.141 100.307 100 34.448 100 50.308 120 50.308 120 0.307"></polygon>
        <linearGradient x1="0%" y1="99.999681%" x2="100%" y2="0.000514329047%" id="linearGradient-5">
            <stop stop-color="#441FFF" offset="0%"></stop>
            <stop stop-color="#ED00FF" offset="100%"></stop>
        </linearGradient>
    </defs>
    <g id="Blog" stroke="none" stroke-width="1" fill="none" fill-rule="evenodd">
        <g id="Desktop-HD-Copy-3" transform="translate(-603.000000, -1716.000000)">
            <g id="Group-25" transform="translate(603.000000, 1715.000000)">
                <g id="Group-21" transform="translate(0.000000, 0.391000)">
                    <path d="M169.5586,43.4121 L173.5756,43.4121 C178.5616,43.4121 181.1936,40.5031 181.1936,36.1401 C181.1936,31.3601 177.8696,29.0061 172.8826,29.0061 L169.5586,29.0061 L169.5586,43.4121 Z M169.5586,21.1101 L172.8826,21.1101 C177.1766,21.1101 180.0156,18.6171 180.0156,15.2241 C180.0156,11.5531 177.8696,9.1981 173.3676,9.1981 L169.5586,9.1981 L169.5586,21.1101 Z M159.9996,1.3021 L173.4366,1.3021 C183.6876,1.3021 189.5746,5.5971 189.5746,14.1841 C189.5746,18.5481 187.4266,22.1491 183.4106,24.5731 C188.6736,27.8971 190.7516,30.6681 190.7516,36.9011 C190.7516,46.8061 184.1026,51.3081 173.9906,51.3081 L159.9996,51.3081 L159.9996,1.3021 Z" id="Fill-1" fill="#111111"></path>
                    <path d="M208.0625,32.3301 L217.5505,32.3301 L212.9105,12.1061 L212.7715,12.1061 L208.0625,32.3301 Z M194.4175,51.3081 L206.8155,1.3021 L219.0745,1.3021 L231.1245,51.3081 L221.9835,51.3081 L219.5585,40.7801 L206.3305,40.7801 L203.6285,51.3081 L194.4175,51.3081 Z" id="Fill-3" fill="#111111"></path>
                    <path d="M256.748,15.2236 C255.154,10.5136 253.076,8.5046 249.752,8.5046 C246.358,8.5046 244.488,10.5826 244.488,13.9766 C244.488,21.5266 265.82,22.0796 265.82,37.7326 C265.82,46.3216 259.934,51.9996 249.891,51.9996 C242.134,51.9996 236.107,47.7756 233.545,37.9406 L242.965,35.9316 C244.072,41.9576 247.535,44.1046 250.375,44.1046 C253.7,44.1046 256.263,41.8886 256.263,38.1486 C256.263,28.7286 234.931,28.5906 234.931,14.5996 C234.931,6.0116 240.056,0.6096 249.96,0.6096 C258.478,0.6096 263.674,5.6646 265.336,12.7306 L256.748,15.2236 Z" id="Fill-5" fill="#111111"></path>
                    <mask id="mask-2" fill="white">
                        <use xlink:href="#path-1"></use>
                    </mask>
                    <g id="Clip-8"></g>
                    <polygon id="Fill-7" fill="#111111" mask="url(#mask-2)" points="273.989 51.308 283.547 51.308 283.547 1.302 273.989 1.302"></polygon>
                    <path d="M313.1191,15.2236 C311.5251,10.5136 309.4471,8.5046 306.1231,8.5046 C302.7291,8.5046 300.8591,10.5826 300.8591,13.9766 C300.8591,21.5266 322.1911,22.0796 322.1911,37.7326 C322.1911,46.3216 316.3051,51.9996 306.2621,51.9996 C298.5051,51.9996 292.4781,47.7756 289.9161,37.9406 L299.3361,35.9316 C300.4431,41.9576 303.9061,44.1046 306.7461,44.1046 C310.0711,44.1046 312.6341,41.8886 312.6341,38.1486 C312.6341,28.7286 291.3021,28.5906 291.3021,14.5996 C291.3021,6.0116 296.4271,0.6096 306.3311,0.6096 C314.8491,0.6096 320.0451,5.6646 321.7071,12.7306 L313.1191,15.2236 Z" id="Fill-9" fill="#111111" mask="url(#mask-2)"></path>
                    <path d="M360.4316,15.2236 C358.8376,10.5136 356.7596,8.5046 353.4356,8.5046 C350.0416,8.5046 348.1716,10.5826 348.1716,13.9766 C348.1716,21.5266 369.5036,22.0796 369.5036,37.7326 C369.5036,46.3216 363.6176,51.9996 353.5746,51.9996 C345.8176,51.9996 339.7906,47.7756 337.2286,37.9406 L346.6486,35.9316 C347.7556,41.9576 351.2186,44.1046 354.0586,44.1046 C357.3836,44.1046 359.9466,41.8886 359.9466,38.1486 C359.9466,28.7286 338.6146,28.5906 338.6146,14.5996 C338.6146,6.0116 343.7396,0.6096 353.6436,0.6096 C362.1616,0.6096 367.3576,5.6646 369.0196,12.7306 L360.4316,15.2236 Z" id="Fill-10" fill="#111111" mask="url(#mask-2)"></path>
                    <polygon id="Fill-11" fill="#111111" mask="url(#mask-2)" points="377.1182 51.3076 377.1182 1.3016 403.2992 1.3016 403.2992 9.7516 386.6762 9.7516 386.6762 21.2486 399.3502 21.2486 399.3502 29.6986 386.6762 29.6986 386.6762 42.8586 403.9912 42.8586 403.9912 51.3076"></polygon>
                    <polygon id="Fill-12" fill="#111111" mask="url(#mask-2)" points="440.0029 1.3018 440.0029 9.7518 428.8519 9.7518 428.8519 51.3078 419.2939 51.3078 419.2939 9.7518 408.1429 9.7518 408.1429 1.3018"></polygon>
                    <polygon id="Fill-13" fill="#111111" mask="url(#mask-2)" points="156.7451 71.3018 166.1641 71.3018 174.9611 107.0398 175.0991 107.0398 183.8261 71.3018 193.1761 71.3018 180.4321 121.3078 169.5581 121.3078"></polygon>
                    <polygon id="Fill-14" fill="#111111" mask="url(#mask-2)" points="196.2187 121.3076 196.2187 71.3016 222.3987 71.3016 222.3987 79.7516 205.7777 79.7516 205.7777 91.2486 218.4507 91.2486 218.4507 99.6986 205.7777 99.6986 205.7777 112.8586 223.0917 112.8586 223.0917 121.3076"></polygon>
                    <polygon id="Fill-15" fill="#111111" mask="url(#mask-2)" points="229.1133 121.3076 229.1133 71.3016 239.5723 71.3016 252.8693 100.9456 253.0083 100.9456 253.0083 71.3016 261.7343 71.3016 261.7343 121.3076 252.5923 121.3076 237.9783 89.0326 237.8403 89.0326 237.8403 121.3076"></polygon>
                    <polygon id="Fill-16" fill="#111111" mask="url(#mask-2)" points="297.5371 71.3018 297.5371 79.7518 286.3871 79.7518 286.3871 121.3078 276.8291 121.3078 276.8291 79.7518 265.6781 79.7518 265.6781 71.3018"></polygon>
                    <path d="M311.0391,71.3018 L311.0391,106.2788 C311.0391,111.0578 313.1171,113.5508 317.7581,113.5508 C322.3981,113.5508 324.5451,111.0578 324.5451,106.2788 L324.5451,71.3018 L334.1021,71.3018 L334.1021,106.3478 C334.1021,117.3598 327.5921,121.9998 317.7581,121.9998 C307.9231,121.9998 301.4811,117.3598 301.4811,106.3478 L301.4811,71.3018 L311.0391,71.3018 Z" id="Fill-17" fill="#111111" mask="url(#mask-2)"></path>
                    <path d="M350.5127,93.0498 L355.4297,93.0498 C359.6547,93.0498 362.2167,90.9718 362.2167,86.1238 C362.2167,81.2758 359.6547,79.1978 355.4297,79.1978 L350.5127,79.1978 L350.5127,93.0498 Z M363.3947,121.3078 L355.0837,100.9458 L350.5127,100.9458 L350.5127,121.3078 L340.9547,121.3078 L340.9547,71.3018 L354.8067,71.3018 C366.3037,71.3018 371.7757,76.8428 371.7757,86.2628 C371.7757,92.4948 369.5587,96.9968 364.2267,99.0058 L373.6457,121.3078 L363.3947,121.3078 Z" id="Fill-18" fill="#111111" mask="url(#mask-2)"></path>
                    <polygon id="Fill-19" fill="#111111" mask="url(#mask-2)" points="377.1738 121.3076 377.1738 71.3016 403.3538 71.3016 403.3538 79.7516 386.7318 79.7516 386.7318 91.2486 399.4058 91.2486 399.4058 99.6986 386.7318 99.6986 386.7318 112.8586 404.0458 112.8586 404.0458 121.3076"></polygon>
                    <path d="M430.6377,85.2236 C429.0447,80.5136 426.9667,78.5046 423.6427,78.5046 C420.2487,78.5046 418.3787,80.5826 418.3787,83.9766 C418.3787,91.5266 439.7107,92.0796 439.7107,107.7326 C439.7107,116.3216 433.8247,121.9996 423.7817,121.9996 C416.0247,121.9996 409.9987,117.7756 407.4367,107.9406 L416.8557,105.9316 C417.9637,111.9576 421.4267,114.1046 424.2667,114.1046 C427.5907,114.1046 430.1537,111.8886 430.1537,108.1486 C430.1537,98.7286 408.8217,98.5906 408.8217,84.5996 C408.8217,76.0116 413.9467,70.6096 423.8507,70.6096 C432.3687,70.6096 437.5647,75.6646 439.2267,82.7306 L430.6377,85.2236 Z" id="Fill-20" fill="#111111" mask="url(#mask-2)"></path>
                </g>
                <g id="Group-24" transform="translate(0.000000, 1.391000)">
                    <mask id="mask-4" fill="white">
                        <use xlink:href="#path-3"></use>
                    </mask>
                    <g id="Clip-23"></g>
                    <polygon id="Fill-22" fill="url(#linearGradient-5)" mask="url(#mask-4)" points="70 0.307 70 20.308 85.859 20.308 20 86.167 20 20.308 50 20.308 50 0.307 0 0.307 0 120.308 120 120.308 120 70.307 100 70.307 100 100.307 34.141 100.307 100 34.448 100 50.308 120 50.308 120 0.307"></polygon>
                </g>
            </g>
        </g>
    </g>
</svg>